<svg xmlns="http://www.w3.org/2000/svg" xmlns:xlink="http://www.w3.org/1999/xlink" width="91" height="23" viewBox="0 0 91 23">
  <defs>
    <clipPath id="clip-logo-voovi">
      <rect width="91" height="23"/>
    </clipPath>
  </defs>
  <g id="logo-voovi" clip-path="url(#clip-logo-voovi)">
    <path id="Path_4" data-name="Path 4" d="M5.771-292.706l5.563-13.85h-3.9l-3.642,9.635L.18-306.556h-3.9l5.563,13.85Zm13.62.344a7.045,7.045,0,0,0,7.341-7.283,7.022,7.022,0,0,0-7.341-7.255,7.015,7.015,0,0,0-7.312,7.255A7.037,7.037,0,0,0,19.392-292.362Zm0-3.24c-2.265,0-3.527-1.864-3.527-4.043,0-2.151,1.262-4.014,3.527-4.014,2.294,0,3.556,1.864,3.556,4.014C22.948-297.466,21.686-295.6,19.392-295.6Zm16.488,3.24a7.045,7.045,0,0,0,7.341-7.283A7.022,7.022,0,0,0,35.88-306.9a7.015,7.015,0,0,0-7.312,7.255A7.037,7.037,0,0,0,35.88-292.362Zm0-3.24c-2.265,0-3.527-1.864-3.527-4.043,0-2.151,1.262-4.014,3.527-4.014,2.294,0,3.556,1.864,3.556,4.014C39.435-297.466,38.174-295.6,35.88-295.6Zm17.578,2.9,5.563-13.85h-3.9l-3.642,9.635-3.613-9.635h-3.9l5.563,13.85Zm10.839,0v-13.85H60.655v13.85Z" transform="translate(25.741 315.362)" fill="#333"/>
    <path id="Path_1" data-name="Path 1" d="M13.174,6.983,21-13.34H16.1L10.462,2.26,4.825-13.34H-.08L7.75,6.983Z" transform="translate(0.068 15.736)" fill="#333"/>
    <path id="Path_2" data-name="Path 2" d="M13.254,20.323,21.084,0H16.179L10.542,15.6,4.905,0H0L7.83,20.323Z" transform="translate(24.008 22.718) rotate(180)" fill="#555"/>
    <path id="Path_3" data-name="Path 3" d="M-11.908,0H-1.6l-.56,1.473H-12.483Z" transform="translate(23.606)" fill="#333"/>
    <path id="Path_5" data-name="Path 5" d="M5.771-292.706l5.563-13.85h-3.9l-3.642,9.635L.18-306.556h-3.9l5.563,13.85Zm13.62.344a7.045,7.045,0,0,0,7.341-7.283,7.022,7.022,0,0,0-7.341-7.255,7.015,7.015,0,0,0-7.312,7.255A7.037,7.037,0,0,0,19.392-292.362Zm0-3.24c-2.265,0-3.527-1.864-3.527-4.043,0-2.151,1.262-4.014,3.527-4.014,2.294,0,3.556,1.864,3.556,4.014C22.948-297.466,21.686-295.6,19.392-295.6Zm16.488,3.24a7.045,7.045,0,0,0,7.341-7.283A7.022,7.022,0,0,0,35.88-306.9a7.015,7.015,0,0,0-7.312,7.255A7.037,7.037,0,0,0,35.88-292.362Zm0-3.24c-2.265,0-3.527-1.864-3.527-4.043,0-2.151,1.262-4.014,3.527-4.014,2.294,0,3.556,1.864,3.556,4.014C39.435-297.466,38.174-295.6,35.88-295.6Zm17.578,2.9,5.563-13.85h-3.9l-3.642,9.635-3.613-9.635h-3.9l5.563,13.85Zm10.839,0v-13.85H60.655v13.85Z" transform="translate(25.741 315.362)" fill="#555"/>
    <rect id="Rectangle_1" data-name="Rectangle 1" width="3.654" height="1.989" transform="translate(86.388 5.775)" fill="#555"/>
  </g>
</svg>
